<svg version="1.1" xmlns="http://www.w3.org/2000/svg" viewBox="0 0 582.4126664419009 569.2382437085348" width="582.4126664419009" height="569.2382437085348">
  <!-- svg-source:excalidraw -->
  
  <defs>
    <style class="style-fonts">
      @font-face {
        font-family: "Virgil";
        src: url("https://excalidraw.com/Virgil.woff2");
      }
      @font-face {
        font-family: "Cascadia";
        src: url("https://excalidraw.com/Cascadia.woff2");
      }
      @font-face {
        font-family: "Assistant";
        src: url("https://excalidraw.com/Assistant-Regular.woff2");
      }
    </style>
    
  </defs>
  <rect x="0" y="0" width="582.4126664419009" height="569.2382437085348" fill="#ffffff"></rect><g stroke-linecap="round" transform="translate(10 10) rotate(0 281.14288330078114 77.14286804199216)"><path d="M32 0 C137.05 0.05, 243.56 0.46, 530.29 0 M32 0 C154.25 -1.64, 276.22 -1.66, 530.29 0 M530.29 0 C550.53 0.6, 563.45 10.16, 562.29 32 M530.29 0 C549.58 2.23, 560.93 8.72, 562.29 32 M562.29 32 C560.35 49.37, 560.26 71.42, 562.29 122.29 M562.29 32 C563.46 65.8, 563.72 99.98, 562.29 122.29 M562.29 122.29 C561.49 145.3, 549.95 153.55, 530.29 154.29 M562.29 122.29 C560.6 141.75, 552.68 153.65, 530.29 154.29 M530.29 154.29 C387.63 154.44, 245.08 154.93, 32 154.29 M530.29 154.29 C429.05 154.24, 327.77 154.26, 32 154.29 M32 154.29 C10.46 154.26, -1.56 144.58, 0 122.29 M32 154.29 C10.63 154.37, 0.12 144.3, 0 122.29 M0 122.29 C0.45 92.36, 1.18 64.2, 0 32 M0 122.29 C-0.09 105.12, 0.36 85.32, 0 32 M0 32 C-1.71 11.19, 11.21 0.93, 32 0 M0 32 C1.26 12.49, 8.92 -0.64, 32 0" stroke="#1971c2" stroke-width="2" fill="none"></path></g><g transform="translate(211.72092437744118 69.64286804199213) rotate(0 79.42195892333984 17.5)"><text x="79.42195892333984" y="24.528" font-family="Virgil, Segoe UI Emoji" font-size="28px" fill="#1971c2" text-anchor="middle" style="white-space: pre;" direction="ltr" dominant-baseline="alphabetic">wio terminal</text></g><g stroke-linecap="round"><g transform="translate(377.1087894435225 170.51861839165963) rotate(0 -0.31413388182795643 12.565334074562372)"><path d="M0.39 -0.08 C0.24 4.07, -0.48 20.86, -0.78 25.07 M-0.07 -0.6 C-0.28 3.63, -0.72 21.33, -1.02 25.73" stroke="#1971c2" stroke-width="2" fill="none"></path></g></g><mask></mask><g stroke-linecap="round"><g transform="translate(283.7424547872929 169.84590723393535) rotate(0 -0.4253646868598935 12.902283056965018)"><path d="M0.23 0.36 C0.08 4.53, -0.62 20.95, -0.81 25.07 M-0.32 0.07 C-0.52 4.32, -0.93 21.47, -1.08 25.73" stroke="#1971c2" stroke-width="2" fill="none"></path></g></g><mask></mask><g stroke-linecap="round"><g transform="translate(190.3097367670723 170.1786831804556) rotate(0 -0.8397674000162851 12.778753306299848)"><path d="M-0.5 -0.26 C-0.76 4.01, -1.31 20.82, -1.37 25.13 M0.24 0.79 C-0.12 5.21, -1.69 21.83, -1.92 25.82" stroke="#1971c2" stroke-width="2" fill="none"></path></g></g><mask></mask><g stroke-linecap="round" transform="translate(10.126899840338638 415.4922788105312) rotate(0 281.14288330078114 71.87298244900177)"><path d="M32 0 C187.89 -1.07, 344.57 0.17, 530.29 0 M32 0 C182.13 -1.36, 331.55 -1.67, 530.29 0 M530.29 0 C553.03 -0.63, 561.61 11.67, 562.29 32 M530.29 0 C551.91 -1.84, 561.01 11.92, 562.29 32 M562.29 32 C561.97 59.19, 563.42 85.44, 562.29 111.75 M562.29 32 C561.36 51.18, 562.08 70.63, 562.29 111.75 M562.29 111.75 C561.8 133.06, 552.65 144.33, 530.29 143.75 M562.29 111.75 C560.06 131.24, 553.67 146, 530.29 143.75 M530.29 143.75 C414.83 142.55, 299.17 142.08, 32 143.75 M530.29 143.75 C361.96 143.85, 194.41 143.86, 32 143.75 M32 143.75 C12.48 142.27, -0.25 131.64, 0 111.75 M32 143.75 C10.59 143.96, -2.05 135.06, 0 111.75 M0 111.75 C0 86.38, 1.59 60.31, 0 32 M0 111.75 C-0.19 83.34, 1.1 52.12, 0 32 M0 32 C-0.43 11.03, 10.39 1.03, 32 0 M0 32 C-0.94 10.09, 11.4 0.81, 32 0" stroke="#1971c2" stroke-width="2" fill="none"></path></g><g transform="translate(117.09586346338551 469.86526125953293) rotate(0 174.17391967773438 17.5)"><text x="174.17391967773438" y="24.528" font-family="Virgil, Segoe UI Emoji" font-size="28px" fill="#1971c2" text-anchor="middle" style="white-space: pre;" direction="ltr" dominant-baseline="alphabetic">PM2.5 Air Quality Sensor</text></g><g stroke-linecap="round"><g transform="translate(379.89451233841487 383.0808689074216) rotate(0 -0.4858801215018502 12.45276709570777)"><path d="M-0.01 0.04 C-0.12 4.32, -0.59 21.19, -0.74 25.32 M-0.68 -0.41 C-0.81 3.72, -0.89 20.17, -0.96 24.44" stroke="#1971c2" stroke-width="2" fill="none"></path></g></g><mask></mask><g stroke-linecap="round"><g transform="translate(286.3048948963972 383.1172012483233) rotate(0 -0.4095252138624801 12.558877080189973)"><path d="M0.4 0.17 C0.25 4.3, -0.74 20.55, -0.91 24.8 M-0.05 -0.21 C-0.25 3.98, -1.12 21.15, -1.22 25.33" stroke="#1971c2" stroke-width="2" fill="none"></path></g></g><mask></mask><g stroke-linecap="round"><g transform="translate(192.93856024016736 382.444490090599) rotate(0 -0.2606045754130264 12.670172195462442)"><path d="M0.23 -0.34 C0.06 3.91, -0.43 21.52, -0.6 25.68 M-0.31 0.68 C-0.54 4.77, -0.64 20.94, -0.75 24.99" stroke="#1971c2" stroke-width="2" fill="none"></path></g></g><mask></mask><g transform="translate(390.0634474981398 384.1270204574344) rotate(0 9.12799072265625 10)"><text x="0" y="14.016" font-family="Virgil, Segoe UI Emoji" font-size="16px" fill="#1971c2" text-anchor="start" style="white-space: pre;" direction="ltr" dominant-baseline="alphabetic">5v</text></g><g transform="translate(294.93542964874723 381.4603266640316) rotate(0 12.295989990234375 10)"><text x="0" y="14.016" font-family="Virgil, Segoe UI Emoji" font-size="16px" fill="#1971c2" text-anchor="start" style="white-space: pre;" direction="ltr" dominant-baseline="alphabetic">gnd</text></g><g transform="translate(203.1576789977055 381.46036057245163) rotate(0 9.0159912109375 10)"><text x="0" y="14.016" font-family="Virgil, Segoe UI Emoji" font-size="16px" fill="#1971c2" text-anchor="start" style="white-space: pre;" direction="ltr" dominant-baseline="alphabetic">tx</text></g><g transform="translate(296.87858218238443 174.34918842618418) rotate(0 12.295989990234375 10)"><text x="0" y="14.016" font-family="Virgil, Segoe UI Emoji" font-size="16px" fill="#1971c2" text-anchor="start" style="white-space: pre;" direction="ltr" dominant-baseline="alphabetic">gnd</text></g><g transform="translate(389.824345664372 175.9047711084758) rotate(0 9.12799072265625 10)"><text x="0" y="14.016" font-family="Virgil, Segoe UI Emoji" font-size="16px" fill="#1971c2" text-anchor="start" style="white-space: pre;" direction="ltr" dominant-baseline="alphabetic">5v</text></g><g stroke-linecap="round"><g transform="translate(374.95236351376457 193.23811122349315) rotate(0 0.7811140983320684 95.30716918815966)"><path d="M-0.28 -0.48 C0.21 31.73, 1.57 160.26, 1.75 192.39 M1.77 -1.78 C2.2 30.14, 0.56 157.88, 0.78 190.47" stroke="#f08c00" stroke-width="2" fill="none"></path></g></g><mask></mask><g stroke-linecap="round"><g transform="translate(283.3967808314728 196.79368034241685) rotate(0 0.8444279322608281 91.70157023809435)"><path d="M-0.31 -0.35 C0.06 30.25, 1.74 152.92, 2 183.63 M1.73 -1.58 C1.97 29.19, 1.43 153.84, 1.16 184.98" stroke="#f08c00" stroke-width="2" fill="none"></path></g></g><mask></mask><g stroke-linecap="round"><g transform="translate(188.99685159712863 196.2031533985931) rotate(0 1.805009895852777 92.79587919285734)"><path d="M-0.29 -0.64 C0.56 30.57, 3.02 155.02, 3.9 186.23 M1.76 1.63 C2.5 32.58, 2.2 153.83, 2.67 184.35" stroke="#f08c00" stroke-width="2" fill="none"></path></g></g><mask></mask><g stroke-linecap="round" transform="translate(353.6190166170629 118.5714988102988) rotate(0 21.777750651041856 21)"><path d="M21.64 0.43 C26.08 0, 31.55 1.62, 35.17 4.37 C38.79 7.12, 42.3 12.55, 43.34 16.93 C44.37 21.32, 43.57 26.74, 41.37 30.69 C39.16 34.63, 34.61 38.94, 30.11 40.58 C25.62 42.23, 18.93 41.9, 14.39 40.53 C9.85 39.17, 5.16 36.23, 2.86 32.38 C0.56 28.54, -0.07 21.94, 0.61 17.45 C1.28 12.96, 3.24 8.39, 6.91 5.47 C10.58 2.55, 19.91 0.81, 22.65 -0.06 C25.38 -0.93, 23.42 -0.18, 23.3 0.23 M21.89 -0.2 C26.25 -0.22, 32.19 2.75, 35.86 5.73 C39.53 8.71, 43.15 13.31, 43.9 17.67 C44.65 22.03, 42.92 28, 40.36 31.9 C37.8 35.8, 32.95 39.72, 28.54 41.05 C24.13 42.39, 18.3 41.6, 13.92 39.92 C9.54 38.23, 4.45 34.87, 2.25 30.94 C0.05 27.02, -0.34 20.83, 0.71 16.38 C1.75 11.93, 4.91 6.9, 8.52 4.24 C12.13 1.57, 20.16 1.07, 22.39 0.39 C24.62 -0.29, 21.9 -0.22, 21.89 0.14" stroke="#2f9e44" stroke-width="2" fill="none"></path></g><g transform="translate(370.37757698657583 129.7222564053813) rotate(0 5.1199951171875 10)"><text x="5.1199951171875" y="14.016" font-family="Virgil, Segoe UI Emoji" font-size="16px" fill="#2f9e44" text-anchor="middle" style="white-space: pre;" direction="ltr" dominant-baseline="alphabetic">4</text></g><g stroke-linecap="round" transform="translate(260.06337968129947 118.90476093594975) rotate(0 21.777750651041856 21)"><path d="M26.66 0.35 C31.07 1.02, 36.36 5.03, 39.2 8.54 C42.04 12.05, 43.92 17, 43.7 21.43 C43.49 25.85, 41.07 31.69, 37.93 35.09 C34.8 38.49, 29.56 41.17, 24.88 41.84 C20.2 42.51, 13.76 41.54, 9.84 39.11 C5.91 36.69, 2.76 31.65, 1.34 27.29 C-0.08 22.93, -0.45 17.2, 1.3 12.96 C3.06 8.73, 7.53 3.91, 11.87 1.88 C16.21 -0.15, 24.79 0.94, 27.33 0.78 C29.87 0.63, 27.22 0.6, 27.1 0.95 M23.72 -0.45 C28.19 -0.2, 33.91 3.75, 37.21 7.12 C40.51 10.49, 43.28 15.44, 43.53 19.76 C43.78 24.09, 41.53 29.42, 38.7 33.06 C35.88 36.69, 30.94 40.52, 26.58 41.59 C22.22 42.66, 16.61 41.52, 12.56 39.48 C8.52 37.45, 4.3 33.44, 2.3 29.39 C0.29 25.33, -0.79 19.41, 0.54 15.14 C1.88 10.86, 6.35 6.3, 10.3 3.72 C14.25 1.14, 22.03 0.14, 24.24 -0.36 C26.45 -0.87, 23.72 0.23, 23.57 0.68" stroke="#2f9e44" stroke-width="2" fill="none"></path></g><g transform="translate(276.8219400508124 130.05551853103225) rotate(0 5.1199951171875 10)"><text x="5.1199951171875" y="14.016" font-family="Virgil, Segoe UI Emoji" font-size="16px" fill="#2f9e44" text-anchor="middle" style="white-space: pre;" direction="ltr" dominant-baseline="alphabetic">6</text></g><g stroke-linecap="round" transform="translate(166.50798010447602 116.23808409675712) rotate(0 21.777750651041856 21)"><path d="M23.66 -0.12 C28.16 -0.1, 33.53 2.95, 36.87 6.17 C40.21 9.39, 43.28 14.71, 43.7 19.19 C44.12 23.68, 42.13 29.5, 39.41 33.11 C36.68 36.72, 31.82 39.61, 27.34 40.85 C22.87 42.1, 16.77 42.34, 12.57 40.56 C8.37 38.78, 4.2 34.34, 2.14 30.16 C0.09 25.99, -0.86 19.88, 0.25 15.53 C1.37 11.17, 4.83 6.65, 8.85 4.04 C12.87 1.43, 21.69 0.46, 24.38 -0.12 C27.08 -0.71, 25.12 0.16, 25.01 0.55 M26.01 0 C30.39 0.55, 36.25 4.05, 39.2 7.65 C42.15 11.25, 44.02 17.04, 43.71 21.6 C43.4 26.17, 40.47 31.56, 37.34 35.02 C34.2 38.49, 29.33 41.8, 24.9 42.4 C20.46 42.99, 14.75 41.05, 10.73 38.62 C6.71 36.19, 2.2 32.11, 0.77 27.8 C-0.66 23.49, 0.42 16.91, 2.15 12.74 C3.89 8.58, 7.08 4.78, 11.18 2.8 C15.27 0.82, 24.11 1.15, 26.7 0.89 C29.28 0.62, 26.81 1, 26.69 1.23" stroke="#2f9e44" stroke-width="2" fill="none"></path></g><g transform="translate(181.0985412064108 127.38884169183962) rotate(0 7.287994384765625 10)"><text x="7.287994384765625" y="14.016" font-family="Virgil, Segoe UI Emoji" font-size="16px" fill="#2f9e44" text-anchor="middle" style="white-space: pre;" direction="ltr" dominant-baseline="alphabetic">16</text></g><g transform="translate(199.7675117613776 172.34920198955223) rotate(0 11.935997009277344 10)"><text x="0" y="14.016" font-family="Virgil, Segoe UI Emoji" font-size="16px" fill="#1971c2" text-anchor="start" style="white-space: pre;" direction="ltr" dominant-baseline="alphabetic">D2</text></g></svg>